<mxfile host="app.diagrams.net" agent="Mozilla/5.0 (Windows NT 10.0; Win64; x64) AppleWebKit/537.36 (KHTML, like Gecko) Chrome/131.0.0.0 Safari/537.36" version="25.0.3">
  <diagram name="Page-1" id="e-1uOjH1ZH8L-rrDf909">
    <mxGraphModel dx="5630" dy="2487" grid="1" gridSize="10" guides="1" tooltips="1" connect="1" arrows="1" fold="1" page="1" pageScale="1" pageWidth="850" pageHeight="1100" math="0" shadow="0">
      <root>
        <mxCell id="0" />
        <mxCell id="1" parent="0" />
        <mxCell id="eVe0wjIkxOfyltBJTPAA-80" style="edgeStyle=orthogonalEdgeStyle;rounded=0;orthogonalLoop=1;jettySize=auto;html=1;entryX=0.5;entryY=0;entryDx=0;entryDy=0;" edge="1" parent="1" source="eVe0wjIkxOfyltBJTPAA-1" target="eVe0wjIkxOfyltBJTPAA-77">
          <mxGeometry relative="1" as="geometry" />
        </mxCell>
        <mxCell id="eVe0wjIkxOfyltBJTPAA-1" value="bubbleSortAscending(arr[], n)" style="strokeWidth=2;html=1;shape=mxgraph.flowchart.start_1;whiteSpace=wrap;" vertex="1" parent="1">
          <mxGeometry x="280" y="60" width="210" height="60" as="geometry" />
        </mxCell>
        <mxCell id="eVe0wjIkxOfyltBJTPAA-111" style="edgeStyle=orthogonalEdgeStyle;rounded=0;orthogonalLoop=1;jettySize=auto;html=1;entryX=0.5;entryY=0;entryDx=0;entryDy=0;" edge="1" parent="1" source="eVe0wjIkxOfyltBJTPAA-3" target="eVe0wjIkxOfyltBJTPAA-96">
          <mxGeometry relative="1" as="geometry" />
        </mxCell>
        <mxCell id="eVe0wjIkxOfyltBJTPAA-3" value="&lt;span style=&quot;text-align: left;&quot;&gt;bubbleSortDescending&lt;/span&gt;(arr[], n)" style="strokeWidth=2;html=1;shape=mxgraph.flowchart.start_1;whiteSpace=wrap;" vertex="1" parent="1">
          <mxGeometry x="280" y="860" width="210" height="60" as="geometry" />
        </mxCell>
        <mxCell id="eVe0wjIkxOfyltBJTPAA-4" value="Student = {name, height}" style="strokeWidth=2;html=1;shape=mxgraph.flowchart.start_1;whiteSpace=wrap;" vertex="1" parent="1">
          <mxGeometry x="-160" y="60" width="210" height="60" as="geometry" />
        </mxCell>
        <mxCell id="eVe0wjIkxOfyltBJTPAA-10" style="edgeStyle=orthogonalEdgeStyle;rounded=0;orthogonalLoop=1;jettySize=auto;html=1;" edge="1" parent="1" source="eVe0wjIkxOfyltBJTPAA-5" target="eVe0wjIkxOfyltBJTPAA-7">
          <mxGeometry relative="1" as="geometry" />
        </mxCell>
        <mxCell id="eVe0wjIkxOfyltBJTPAA-5" value="&lt;font style=&quot;font-size: 24px;&quot;&gt;start&lt;/font&gt;" style="strokeWidth=2;html=1;shape=mxgraph.flowchart.start_1;whiteSpace=wrap;" vertex="1" parent="1">
          <mxGeometry x="-700" y="60" width="100" height="60" as="geometry" />
        </mxCell>
        <mxCell id="eVe0wjIkxOfyltBJTPAA-6" value="&lt;font style=&quot;font-size: 24px;&quot;&gt;end&lt;/font&gt;" style="strokeWidth=2;html=1;shape=mxgraph.flowchart.start_1;whiteSpace=wrap;" vertex="1" parent="1">
          <mxGeometry x="-700.75" y="2510" width="100" height="60" as="geometry" />
        </mxCell>
        <mxCell id="eVe0wjIkxOfyltBJTPAA-11" style="edgeStyle=orthogonalEdgeStyle;rounded=0;orthogonalLoop=1;jettySize=auto;html=1;entryX=0.5;entryY=0;entryDx=0;entryDy=0;" edge="1" parent="1" source="eVe0wjIkxOfyltBJTPAA-7" target="eVe0wjIkxOfyltBJTPAA-8">
          <mxGeometry relative="1" as="geometry" />
        </mxCell>
        <mxCell id="eVe0wjIkxOfyltBJTPAA-7" value="Student roomA[MAX_STUDENTS], roomB[Max_STUDENTS], school{MAX_STUDENTS * 2]" style="rounded=1;whiteSpace=wrap;html=1;absoluteArcSize=1;arcSize=14;strokeWidth=2;" vertex="1" parent="1">
          <mxGeometry x="-780" y="160" width="260" height="60" as="geometry" />
        </mxCell>
        <mxCell id="eVe0wjIkxOfyltBJTPAA-12" style="edgeStyle=orthogonalEdgeStyle;rounded=0;orthogonalLoop=1;jettySize=auto;html=1;entryX=0.5;entryY=0;entryDx=0;entryDy=0;" edge="1" parent="1" source="eVe0wjIkxOfyltBJTPAA-8" target="eVe0wjIkxOfyltBJTPAA-9">
          <mxGeometry relative="1" as="geometry" />
        </mxCell>
        <mxCell id="eVe0wjIkxOfyltBJTPAA-39" style="edgeStyle=orthogonalEdgeStyle;rounded=0;orthogonalLoop=1;jettySize=auto;html=1;entryX=0.5;entryY=0;entryDx=0;entryDy=0;" edge="1" parent="1" source="eVe0wjIkxOfyltBJTPAA-8" target="eVe0wjIkxOfyltBJTPAA-26">
          <mxGeometry relative="1" as="geometry" />
        </mxCell>
        <mxCell id="eVe0wjIkxOfyltBJTPAA-8" value="while (1)" style="rhombus;whiteSpace=wrap;html=1;" vertex="1" parent="1">
          <mxGeometry x="-718.75" y="280" width="137.5" height="50" as="geometry" />
        </mxCell>
        <mxCell id="eVe0wjIkxOfyltBJTPAA-14" style="edgeStyle=orthogonalEdgeStyle;rounded=0;orthogonalLoop=1;jettySize=auto;html=1;entryX=0.5;entryY=0;entryDx=0;entryDy=0;" edge="1" parent="1" source="eVe0wjIkxOfyltBJTPAA-9" target="eVe0wjIkxOfyltBJTPAA-13">
          <mxGeometry relative="1" as="geometry" />
        </mxCell>
        <mxCell id="eVe0wjIkxOfyltBJTPAA-9" value="input name" style="shape=parallelogram;perimeter=parallelogramPerimeter;whiteSpace=wrap;html=1;fixedSize=1;" vertex="1" parent="1">
          <mxGeometry x="-525" y="380" width="140" height="40" as="geometry" />
        </mxCell>
        <mxCell id="eVe0wjIkxOfyltBJTPAA-16" style="edgeStyle=orthogonalEdgeStyle;rounded=0;orthogonalLoop=1;jettySize=auto;html=1;entryX=0.5;entryY=0;entryDx=0;entryDy=0;" edge="1" parent="1" source="eVe0wjIkxOfyltBJTPAA-13" target="eVe0wjIkxOfyltBJTPAA-15">
          <mxGeometry relative="1" as="geometry" />
        </mxCell>
        <mxCell id="eVe0wjIkxOfyltBJTPAA-13" value="if (strcmp(name, &quot;-1&quot;) == 0)" style="rhombus;whiteSpace=wrap;html=1;" vertex="1" parent="1">
          <mxGeometry x="-545" y="460" width="180" height="80" as="geometry" />
        </mxCell>
        <mxCell id="eVe0wjIkxOfyltBJTPAA-18" style="edgeStyle=orthogonalEdgeStyle;rounded=0;orthogonalLoop=1;jettySize=auto;html=1;entryX=0.5;entryY=0;entryDx=0;entryDy=0;" edge="1" parent="1" source="eVe0wjIkxOfyltBJTPAA-15" target="eVe0wjIkxOfyltBJTPAA-17">
          <mxGeometry relative="1" as="geometry" />
        </mxCell>
        <mxCell id="eVe0wjIkxOfyltBJTPAA-15" value="input height" style="shape=parallelogram;perimeter=parallelogramPerimeter;whiteSpace=wrap;html=1;fixedSize=1;" vertex="1" parent="1">
          <mxGeometry x="-525" y="580" width="140" height="40" as="geometry" />
        </mxCell>
        <mxCell id="eVe0wjIkxOfyltBJTPAA-21" style="edgeStyle=orthogonalEdgeStyle;rounded=0;orthogonalLoop=1;jettySize=auto;html=1;entryX=0.5;entryY=0;entryDx=0;entryDy=0;" edge="1" parent="1" source="eVe0wjIkxOfyltBJTPAA-17" target="eVe0wjIkxOfyltBJTPAA-19">
          <mxGeometry relative="1" as="geometry" />
        </mxCell>
        <mxCell id="eVe0wjIkxOfyltBJTPAA-17" value="strcpy(roomA[countA].name, name)" style="rounded=1;whiteSpace=wrap;html=1;absoluteArcSize=1;arcSize=14;strokeWidth=2;" vertex="1" parent="1">
          <mxGeometry x="-560" y="660" width="210" height="40" as="geometry" />
        </mxCell>
        <mxCell id="eVe0wjIkxOfyltBJTPAA-22" style="edgeStyle=orthogonalEdgeStyle;rounded=0;orthogonalLoop=1;jettySize=auto;html=1;entryX=0.5;entryY=0;entryDx=0;entryDy=0;" edge="1" parent="1" source="eVe0wjIkxOfyltBJTPAA-19" target="eVe0wjIkxOfyltBJTPAA-20">
          <mxGeometry relative="1" as="geometry" />
        </mxCell>
        <mxCell id="eVe0wjIkxOfyltBJTPAA-19" value="roomA[countA].height = height" style="rounded=1;whiteSpace=wrap;html=1;absoluteArcSize=1;arcSize=14;strokeWidth=2;" vertex="1" parent="1">
          <mxGeometry x="-560" y="740" width="210" height="40" as="geometry" />
        </mxCell>
        <mxCell id="eVe0wjIkxOfyltBJTPAA-23" style="edgeStyle=orthogonalEdgeStyle;rounded=0;orthogonalLoop=1;jettySize=auto;html=1;entryX=1;entryY=1;entryDx=0;entryDy=0;" edge="1" parent="1" source="eVe0wjIkxOfyltBJTPAA-20" target="eVe0wjIkxOfyltBJTPAA-8">
          <mxGeometry relative="1" as="geometry" />
        </mxCell>
        <mxCell id="eVe0wjIkxOfyltBJTPAA-20" value="countA++" style="rounded=1;whiteSpace=wrap;html=1;absoluteArcSize=1;arcSize=14;strokeWidth=2;" vertex="1" parent="1">
          <mxGeometry x="-560" y="820" width="210" height="40" as="geometry" />
        </mxCell>
        <mxCell id="eVe0wjIkxOfyltBJTPAA-24" style="edgeStyle=orthogonalEdgeStyle;rounded=0;orthogonalLoop=1;jettySize=auto;html=1;entryX=1;entryY=0.5;entryDx=0;entryDy=0;entryPerimeter=0;exitX=1;exitY=0.5;exitDx=0;exitDy=0;" edge="1" parent="1" source="eVe0wjIkxOfyltBJTPAA-13" target="eVe0wjIkxOfyltBJTPAA-6">
          <mxGeometry relative="1" as="geometry">
            <Array as="points">
              <mxPoint x="-230" y="500" />
              <mxPoint x="-230" y="2540" />
            </Array>
          </mxGeometry>
        </mxCell>
        <mxCell id="eVe0wjIkxOfyltBJTPAA-25" style="edgeStyle=orthogonalEdgeStyle;rounded=0;orthogonalLoop=1;jettySize=auto;html=1;entryX=0.5;entryY=0;entryDx=0;entryDy=0;" edge="1" parent="1" source="eVe0wjIkxOfyltBJTPAA-26" target="eVe0wjIkxOfyltBJTPAA-28">
          <mxGeometry relative="1" as="geometry" />
        </mxCell>
        <mxCell id="eVe0wjIkxOfyltBJTPAA-42" style="edgeStyle=orthogonalEdgeStyle;rounded=0;orthogonalLoop=1;jettySize=auto;html=1;entryX=0.5;entryY=0;entryDx=0;entryDy=0;" edge="1" parent="1" source="eVe0wjIkxOfyltBJTPAA-26" target="eVe0wjIkxOfyltBJTPAA-41">
          <mxGeometry relative="1" as="geometry" />
        </mxCell>
        <mxCell id="eVe0wjIkxOfyltBJTPAA-26" value="while (1)" style="rhombus;whiteSpace=wrap;html=1;" vertex="1" parent="1">
          <mxGeometry x="-718.75" y="920" width="137.5" height="50" as="geometry" />
        </mxCell>
        <mxCell id="eVe0wjIkxOfyltBJTPAA-27" style="edgeStyle=orthogonalEdgeStyle;rounded=0;orthogonalLoop=1;jettySize=auto;html=1;entryX=0.5;entryY=0;entryDx=0;entryDy=0;" edge="1" parent="1" source="eVe0wjIkxOfyltBJTPAA-28" target="eVe0wjIkxOfyltBJTPAA-30">
          <mxGeometry relative="1" as="geometry" />
        </mxCell>
        <mxCell id="eVe0wjIkxOfyltBJTPAA-28" value="input name" style="shape=parallelogram;perimeter=parallelogramPerimeter;whiteSpace=wrap;html=1;fixedSize=1;" vertex="1" parent="1">
          <mxGeometry x="-525" y="1020" width="140" height="40" as="geometry" />
        </mxCell>
        <mxCell id="eVe0wjIkxOfyltBJTPAA-29" style="edgeStyle=orthogonalEdgeStyle;rounded=0;orthogonalLoop=1;jettySize=auto;html=1;entryX=0.5;entryY=0;entryDx=0;entryDy=0;" edge="1" parent="1" source="eVe0wjIkxOfyltBJTPAA-30" target="eVe0wjIkxOfyltBJTPAA-32">
          <mxGeometry relative="1" as="geometry" />
        </mxCell>
        <mxCell id="eVe0wjIkxOfyltBJTPAA-30" value="if (strcmp(name, &quot;-1&quot;) == 0)" style="rhombus;whiteSpace=wrap;html=1;" vertex="1" parent="1">
          <mxGeometry x="-545" y="1100" width="180" height="80" as="geometry" />
        </mxCell>
        <mxCell id="eVe0wjIkxOfyltBJTPAA-31" style="edgeStyle=orthogonalEdgeStyle;rounded=0;orthogonalLoop=1;jettySize=auto;html=1;entryX=0.5;entryY=0;entryDx=0;entryDy=0;" edge="1" parent="1" source="eVe0wjIkxOfyltBJTPAA-32" target="eVe0wjIkxOfyltBJTPAA-34">
          <mxGeometry relative="1" as="geometry" />
        </mxCell>
        <mxCell id="eVe0wjIkxOfyltBJTPAA-32" value="input height" style="shape=parallelogram;perimeter=parallelogramPerimeter;whiteSpace=wrap;html=1;fixedSize=1;" vertex="1" parent="1">
          <mxGeometry x="-525" y="1220" width="140" height="40" as="geometry" />
        </mxCell>
        <mxCell id="eVe0wjIkxOfyltBJTPAA-33" style="edgeStyle=orthogonalEdgeStyle;rounded=0;orthogonalLoop=1;jettySize=auto;html=1;entryX=0.5;entryY=0;entryDx=0;entryDy=0;" edge="1" parent="1" source="eVe0wjIkxOfyltBJTPAA-34" target="eVe0wjIkxOfyltBJTPAA-36">
          <mxGeometry relative="1" as="geometry" />
        </mxCell>
        <mxCell id="eVe0wjIkxOfyltBJTPAA-34" value="strcpy(roomB[countB].name, name)" style="rounded=1;whiteSpace=wrap;html=1;absoluteArcSize=1;arcSize=14;strokeWidth=2;" vertex="1" parent="1">
          <mxGeometry x="-560" y="1300" width="210" height="40" as="geometry" />
        </mxCell>
        <mxCell id="eVe0wjIkxOfyltBJTPAA-35" style="edgeStyle=orthogonalEdgeStyle;rounded=0;orthogonalLoop=1;jettySize=auto;html=1;entryX=0.5;entryY=0;entryDx=0;entryDy=0;" edge="1" parent="1" source="eVe0wjIkxOfyltBJTPAA-36" target="eVe0wjIkxOfyltBJTPAA-38">
          <mxGeometry relative="1" as="geometry" />
        </mxCell>
        <mxCell id="eVe0wjIkxOfyltBJTPAA-36" value="roomB[countB].height = height" style="rounded=1;whiteSpace=wrap;html=1;absoluteArcSize=1;arcSize=14;strokeWidth=2;" vertex="1" parent="1">
          <mxGeometry x="-560" y="1380" width="210" height="40" as="geometry" />
        </mxCell>
        <mxCell id="eVe0wjIkxOfyltBJTPAA-37" style="edgeStyle=orthogonalEdgeStyle;rounded=0;orthogonalLoop=1;jettySize=auto;html=1;entryX=1;entryY=1;entryDx=0;entryDy=0;" edge="1" parent="1" source="eVe0wjIkxOfyltBJTPAA-38" target="eVe0wjIkxOfyltBJTPAA-26">
          <mxGeometry relative="1" as="geometry" />
        </mxCell>
        <mxCell id="eVe0wjIkxOfyltBJTPAA-38" value="countB++" style="rounded=1;whiteSpace=wrap;html=1;absoluteArcSize=1;arcSize=14;strokeWidth=2;" vertex="1" parent="1">
          <mxGeometry x="-560" y="1460" width="210" height="40" as="geometry" />
        </mxCell>
        <mxCell id="eVe0wjIkxOfyltBJTPAA-45" style="edgeStyle=orthogonalEdgeStyle;rounded=0;orthogonalLoop=1;jettySize=auto;html=1;entryX=0.5;entryY=0;entryDx=0;entryDy=0;" edge="1" parent="1" source="eVe0wjIkxOfyltBJTPAA-41" target="eVe0wjIkxOfyltBJTPAA-44">
          <mxGeometry relative="1" as="geometry" />
        </mxCell>
        <mxCell id="eVe0wjIkxOfyltBJTPAA-41" value="bubbleSortAscending(roomA, countA)" style="verticalLabelPosition=bottom;verticalAlign=top;html=1;shape=process;whiteSpace=wrap;rounded=1;size=0.14;arcSize=6;" vertex="1" parent="1">
          <mxGeometry x="-717.25" y="1530" width="136" height="30" as="geometry" />
        </mxCell>
        <mxCell id="eVe0wjIkxOfyltBJTPAA-49" style="edgeStyle=orthogonalEdgeStyle;rounded=0;orthogonalLoop=1;jettySize=auto;html=1;entryX=0.5;entryY=0;entryDx=0;entryDy=0;" edge="1" parent="1" source="eVe0wjIkxOfyltBJTPAA-44" target="eVe0wjIkxOfyltBJTPAA-47">
          <mxGeometry relative="1" as="geometry" />
        </mxCell>
        <mxCell id="eVe0wjIkxOfyltBJTPAA-44" value="bubbleSortAscending(roomB, countB)" style="verticalLabelPosition=bottom;verticalAlign=top;html=1;shape=process;whiteSpace=wrap;rounded=1;size=0.14;arcSize=6;" vertex="1" parent="1">
          <mxGeometry x="-718" y="1620" width="136" height="30" as="geometry" />
        </mxCell>
        <mxCell id="eVe0wjIkxOfyltBJTPAA-50" style="edgeStyle=orthogonalEdgeStyle;rounded=0;orthogonalLoop=1;jettySize=auto;html=1;entryX=0.5;entryY=0;entryDx=0;entryDy=0;" edge="1" parent="1" source="eVe0wjIkxOfyltBJTPAA-47" target="eVe0wjIkxOfyltBJTPAA-48">
          <mxGeometry relative="1" as="geometry" />
        </mxCell>
        <mxCell id="eVe0wjIkxOfyltBJTPAA-54" style="edgeStyle=orthogonalEdgeStyle;rounded=0;orthogonalLoop=1;jettySize=auto;html=1;entryX=0.5;entryY=0;entryDx=0;entryDy=0;" edge="1" parent="1" source="eVe0wjIkxOfyltBJTPAA-47" target="eVe0wjIkxOfyltBJTPAA-52">
          <mxGeometry relative="1" as="geometry" />
        </mxCell>
        <mxCell id="eVe0wjIkxOfyltBJTPAA-47" value="for ( i &amp;lt; countA, i++)" style="rhombus;whiteSpace=wrap;html=1;" vertex="1" parent="1">
          <mxGeometry x="-718" y="1730" width="137.5" height="50" as="geometry" />
        </mxCell>
        <mxCell id="eVe0wjIkxOfyltBJTPAA-51" style="edgeStyle=orthogonalEdgeStyle;rounded=0;orthogonalLoop=1;jettySize=auto;html=1;entryX=1;entryY=1;entryDx=0;entryDy=0;" edge="1" parent="1" source="eVe0wjIkxOfyltBJTPAA-48" target="eVe0wjIkxOfyltBJTPAA-47">
          <mxGeometry relative="1" as="geometry" />
        </mxCell>
        <mxCell id="eVe0wjIkxOfyltBJTPAA-48" value="school[schoolCount++] = roomA[i]" style="rounded=1;whiteSpace=wrap;html=1;absoluteArcSize=1;arcSize=14;strokeWidth=2;" vertex="1" parent="1">
          <mxGeometry x="-575" y="1790" width="210" height="40" as="geometry" />
        </mxCell>
        <mxCell id="eVe0wjIkxOfyltBJTPAA-55" style="edgeStyle=orthogonalEdgeStyle;rounded=0;orthogonalLoop=1;jettySize=auto;html=1;entryX=0.5;entryY=0;entryDx=0;entryDy=0;" edge="1" parent="1" source="eVe0wjIkxOfyltBJTPAA-52" target="eVe0wjIkxOfyltBJTPAA-53">
          <mxGeometry relative="1" as="geometry" />
        </mxCell>
        <mxCell id="eVe0wjIkxOfyltBJTPAA-58" style="edgeStyle=orthogonalEdgeStyle;rounded=0;orthogonalLoop=1;jettySize=auto;html=1;entryX=0.5;entryY=0;entryDx=0;entryDy=0;" edge="1" parent="1" source="eVe0wjIkxOfyltBJTPAA-52" target="eVe0wjIkxOfyltBJTPAA-57">
          <mxGeometry relative="1" as="geometry" />
        </mxCell>
        <mxCell id="eVe0wjIkxOfyltBJTPAA-52" value="for ( i &amp;lt; countB, i++)" style="rhombus;whiteSpace=wrap;html=1;" vertex="1" parent="1">
          <mxGeometry x="-718.75" y="1850" width="137.5" height="50" as="geometry" />
        </mxCell>
        <mxCell id="eVe0wjIkxOfyltBJTPAA-56" style="edgeStyle=orthogonalEdgeStyle;rounded=0;orthogonalLoop=1;jettySize=auto;html=1;entryX=1;entryY=1;entryDx=0;entryDy=0;" edge="1" parent="1" source="eVe0wjIkxOfyltBJTPAA-53" target="eVe0wjIkxOfyltBJTPAA-52">
          <mxGeometry relative="1" as="geometry" />
        </mxCell>
        <mxCell id="eVe0wjIkxOfyltBJTPAA-53" value="school[schoolCount++] = roomB[i]" style="rounded=1;whiteSpace=wrap;html=1;absoluteArcSize=1;arcSize=14;strokeWidth=2;" vertex="1" parent="1">
          <mxGeometry x="-575.75" y="1910" width="210" height="40" as="geometry" />
        </mxCell>
        <mxCell id="eVe0wjIkxOfyltBJTPAA-62" style="edgeStyle=orthogonalEdgeStyle;rounded=0;orthogonalLoop=1;jettySize=auto;html=1;entryX=0.5;entryY=0;entryDx=0;entryDy=0;" edge="1" parent="1" source="eVe0wjIkxOfyltBJTPAA-57" target="eVe0wjIkxOfyltBJTPAA-61">
          <mxGeometry relative="1" as="geometry" />
        </mxCell>
        <mxCell id="eVe0wjIkxOfyltBJTPAA-57" value="bubbleSortDescending(school, schoolCount)" style="verticalLabelPosition=bottom;verticalAlign=top;html=1;shape=process;whiteSpace=wrap;rounded=1;size=0.14;arcSize=6;" vertex="1" parent="1">
          <mxGeometry x="-718.75" y="1990" width="136" height="30" as="geometry" />
        </mxCell>
        <mxCell id="eVe0wjIkxOfyltBJTPAA-65" style="edgeStyle=orthogonalEdgeStyle;rounded=0;orthogonalLoop=1;jettySize=auto;html=1;entryX=0.5;entryY=0;entryDx=0;entryDy=0;" edge="1" parent="1" source="eVe0wjIkxOfyltBJTPAA-61" target="eVe0wjIkxOfyltBJTPAA-63">
          <mxGeometry relative="1" as="geometry" />
        </mxCell>
        <mxCell id="eVe0wjIkxOfyltBJTPAA-69" style="edgeStyle=orthogonalEdgeStyle;rounded=0;orthogonalLoop=1;jettySize=auto;html=1;entryX=0.5;entryY=0;entryDx=0;entryDy=0;" edge="1" parent="1" source="eVe0wjIkxOfyltBJTPAA-61" target="eVe0wjIkxOfyltBJTPAA-68">
          <mxGeometry relative="1" as="geometry" />
        </mxCell>
        <mxCell id="eVe0wjIkxOfyltBJTPAA-61" value="for ( i &amp;lt; countA, i++)" style="rhombus;whiteSpace=wrap;html=1;" vertex="1" parent="1">
          <mxGeometry x="-719.5" y="2080" width="137.5" height="50" as="geometry" />
        </mxCell>
        <mxCell id="eVe0wjIkxOfyltBJTPAA-66" style="edgeStyle=orthogonalEdgeStyle;rounded=0;orthogonalLoop=1;jettySize=auto;html=1;entryX=0.5;entryY=0;entryDx=0;entryDy=0;" edge="1" parent="1" source="eVe0wjIkxOfyltBJTPAA-63" target="eVe0wjIkxOfyltBJTPAA-64">
          <mxGeometry relative="1" as="geometry" />
        </mxCell>
        <mxCell id="eVe0wjIkxOfyltBJTPAA-72" style="edgeStyle=orthogonalEdgeStyle;rounded=0;orthogonalLoop=1;jettySize=auto;html=1;entryX=0.5;entryY=0;entryDx=0;entryDy=0;" edge="1" parent="1" source="eVe0wjIkxOfyltBJTPAA-63" target="eVe0wjIkxOfyltBJTPAA-71">
          <mxGeometry relative="1" as="geometry" />
        </mxCell>
        <mxCell id="eVe0wjIkxOfyltBJTPAA-63" value="for ( i &amp;lt; countB, i++)" style="rhombus;whiteSpace=wrap;html=1;" vertex="1" parent="1">
          <mxGeometry x="-719.5" y="2200" width="137.5" height="50" as="geometry" />
        </mxCell>
        <mxCell id="eVe0wjIkxOfyltBJTPAA-75" style="edgeStyle=orthogonalEdgeStyle;rounded=0;orthogonalLoop=1;jettySize=auto;html=1;entryX=0.5;entryY=0;entryDx=0;entryDy=0;" edge="1" parent="1" source="eVe0wjIkxOfyltBJTPAA-64" target="eVe0wjIkxOfyltBJTPAA-74">
          <mxGeometry relative="1" as="geometry" />
        </mxCell>
        <mxCell id="eVe0wjIkxOfyltBJTPAA-64" value="for ( i &amp;lt; schoolCount, i++)" style="rhombus;whiteSpace=wrap;html=1;" vertex="1" parent="1">
          <mxGeometry x="-718.75" y="2320" width="137.5" height="50" as="geometry" />
        </mxCell>
        <mxCell id="eVe0wjIkxOfyltBJTPAA-67" style="edgeStyle=orthogonalEdgeStyle;rounded=0;orthogonalLoop=1;jettySize=auto;html=1;entryX=0.5;entryY=0;entryDx=0;entryDy=0;entryPerimeter=0;" edge="1" parent="1" source="eVe0wjIkxOfyltBJTPAA-64" target="eVe0wjIkxOfyltBJTPAA-6">
          <mxGeometry relative="1" as="geometry" />
        </mxCell>
        <mxCell id="eVe0wjIkxOfyltBJTPAA-70" style="edgeStyle=orthogonalEdgeStyle;rounded=0;orthogonalLoop=1;jettySize=auto;html=1;entryX=1;entryY=1;entryDx=0;entryDy=0;" edge="1" parent="1" source="eVe0wjIkxOfyltBJTPAA-68" target="eVe0wjIkxOfyltBJTPAA-61">
          <mxGeometry relative="1" as="geometry" />
        </mxCell>
        <mxCell id="eVe0wjIkxOfyltBJTPAA-68" value="output roomA[i].name, (i &amp;lt; countA - 1) ? &quot;&quot; : &quot;&quot;" style="shape=parallelogram;perimeter=parallelogramPerimeter;whiteSpace=wrap;html=1;fixedSize=1;" vertex="1" parent="1">
          <mxGeometry x="-560" y="2140" width="170" height="50" as="geometry" />
        </mxCell>
        <mxCell id="eVe0wjIkxOfyltBJTPAA-73" style="edgeStyle=orthogonalEdgeStyle;rounded=0;orthogonalLoop=1;jettySize=auto;html=1;entryX=1;entryY=1;entryDx=0;entryDy=0;" edge="1" parent="1" source="eVe0wjIkxOfyltBJTPAA-71" target="eVe0wjIkxOfyltBJTPAA-63">
          <mxGeometry relative="1" as="geometry" />
        </mxCell>
        <mxCell id="eVe0wjIkxOfyltBJTPAA-71" value="output roomB[i].name, (i &amp;lt; countB - 1) ? &quot;&quot; : &quot;&quot;" style="shape=parallelogram;perimeter=parallelogramPerimeter;whiteSpace=wrap;html=1;fixedSize=1;" vertex="1" parent="1">
          <mxGeometry x="-560" y="2260" width="170" height="50" as="geometry" />
        </mxCell>
        <mxCell id="eVe0wjIkxOfyltBJTPAA-76" style="edgeStyle=orthogonalEdgeStyle;rounded=0;orthogonalLoop=1;jettySize=auto;html=1;entryX=1;entryY=1;entryDx=0;entryDy=0;" edge="1" parent="1" source="eVe0wjIkxOfyltBJTPAA-74" target="eVe0wjIkxOfyltBJTPAA-64">
          <mxGeometry relative="1" as="geometry" />
        </mxCell>
        <mxCell id="eVe0wjIkxOfyltBJTPAA-74" value="output school[i].name, (i &amp;lt; schoolCount -1) ? &quot;&quot; : &quot;&quot;" style="shape=parallelogram;perimeter=parallelogramPerimeter;whiteSpace=wrap;html=1;fixedSize=1;" vertex="1" parent="1">
          <mxGeometry x="-560" y="2380" width="170" height="50" as="geometry" />
        </mxCell>
        <mxCell id="eVe0wjIkxOfyltBJTPAA-81" style="edgeStyle=orthogonalEdgeStyle;rounded=0;orthogonalLoop=1;jettySize=auto;html=1;entryX=0.5;entryY=0;entryDx=0;entryDy=0;" edge="1" parent="1" source="eVe0wjIkxOfyltBJTPAA-77" target="eVe0wjIkxOfyltBJTPAA-78">
          <mxGeometry relative="1" as="geometry" />
        </mxCell>
        <mxCell id="eVe0wjIkxOfyltBJTPAA-77" value="for ( i &amp;lt; n - 1, i++)" style="rhombus;whiteSpace=wrap;html=1;" vertex="1" parent="1">
          <mxGeometry x="316.25" y="165" width="137.5" height="50" as="geometry" />
        </mxCell>
        <mxCell id="eVe0wjIkxOfyltBJTPAA-82" style="edgeStyle=orthogonalEdgeStyle;rounded=0;orthogonalLoop=1;jettySize=auto;html=1;entryX=0.5;entryY=0;entryDx=0;entryDy=0;" edge="1" parent="1" source="eVe0wjIkxOfyltBJTPAA-78" target="eVe0wjIkxOfyltBJTPAA-79">
          <mxGeometry relative="1" as="geometry" />
        </mxCell>
        <mxCell id="eVe0wjIkxOfyltBJTPAA-91" style="edgeStyle=orthogonalEdgeStyle;rounded=0;orthogonalLoop=1;jettySize=auto;html=1;entryX=1;entryY=1;entryDx=0;entryDy=0;" edge="1" parent="1" source="eVe0wjIkxOfyltBJTPAA-78" target="eVe0wjIkxOfyltBJTPAA-77">
          <mxGeometry relative="1" as="geometry" />
        </mxCell>
        <mxCell id="eVe0wjIkxOfyltBJTPAA-78" value="for ( j &amp;lt; n - i - 1, j++)" style="rhombus;whiteSpace=wrap;html=1;" vertex="1" parent="1">
          <mxGeometry x="470" y="230" width="137.5" height="50" as="geometry" />
        </mxCell>
        <mxCell id="eVe0wjIkxOfyltBJTPAA-86" style="edgeStyle=orthogonalEdgeStyle;rounded=0;orthogonalLoop=1;jettySize=auto;html=1;entryX=0.5;entryY=0;entryDx=0;entryDy=0;" edge="1" parent="1" source="eVe0wjIkxOfyltBJTPAA-79" target="eVe0wjIkxOfyltBJTPAA-83">
          <mxGeometry relative="1" as="geometry" />
        </mxCell>
        <mxCell id="eVe0wjIkxOfyltBJTPAA-92" style="edgeStyle=orthogonalEdgeStyle;rounded=0;orthogonalLoop=1;jettySize=auto;html=1;entryX=1;entryY=1;entryDx=0;entryDy=0;" edge="1" parent="1" source="eVe0wjIkxOfyltBJTPAA-79" target="eVe0wjIkxOfyltBJTPAA-78">
          <mxGeometry relative="1" as="geometry" />
        </mxCell>
        <mxCell id="eVe0wjIkxOfyltBJTPAA-79" value="if (arr[j].height &amp;gt; arr[j + 1].height)" style="rhombus;whiteSpace=wrap;html=1;" vertex="1" parent="1">
          <mxGeometry x="610" y="300" width="200" height="100" as="geometry" />
        </mxCell>
        <mxCell id="eVe0wjIkxOfyltBJTPAA-87" style="edgeStyle=orthogonalEdgeStyle;rounded=0;orthogonalLoop=1;jettySize=auto;html=1;entryX=0.5;entryY=0;entryDx=0;entryDy=0;" edge="1" parent="1" source="eVe0wjIkxOfyltBJTPAA-83" target="eVe0wjIkxOfyltBJTPAA-84">
          <mxGeometry relative="1" as="geometry" />
        </mxCell>
        <mxCell id="eVe0wjIkxOfyltBJTPAA-83" value="Student temp = arr[j]" style="rounded=1;whiteSpace=wrap;html=1;absoluteArcSize=1;arcSize=14;strokeWidth=2;" vertex="1" parent="1">
          <mxGeometry x="820" y="400" width="160" height="40" as="geometry" />
        </mxCell>
        <mxCell id="eVe0wjIkxOfyltBJTPAA-88" style="edgeStyle=orthogonalEdgeStyle;rounded=0;orthogonalLoop=1;jettySize=auto;html=1;entryX=0.5;entryY=0;entryDx=0;entryDy=0;" edge="1" parent="1" source="eVe0wjIkxOfyltBJTPAA-84" target="eVe0wjIkxOfyltBJTPAA-85">
          <mxGeometry relative="1" as="geometry" />
        </mxCell>
        <mxCell id="eVe0wjIkxOfyltBJTPAA-84" value="arr[j] = arr[j + 1]" style="rounded=1;whiteSpace=wrap;html=1;absoluteArcSize=1;arcSize=14;strokeWidth=2;" vertex="1" parent="1">
          <mxGeometry x="820" y="480" width="160" height="40" as="geometry" />
        </mxCell>
        <mxCell id="eVe0wjIkxOfyltBJTPAA-89" style="edgeStyle=orthogonalEdgeStyle;rounded=0;orthogonalLoop=1;jettySize=auto;html=1;entryX=1;entryY=1;entryDx=0;entryDy=0;" edge="1" parent="1" source="eVe0wjIkxOfyltBJTPAA-85" target="eVe0wjIkxOfyltBJTPAA-78">
          <mxGeometry relative="1" as="geometry" />
        </mxCell>
        <mxCell id="eVe0wjIkxOfyltBJTPAA-85" value="arr[j + 1] = temp" style="rounded=1;whiteSpace=wrap;html=1;absoluteArcSize=1;arcSize=14;strokeWidth=2;" vertex="1" parent="1">
          <mxGeometry x="820" y="570" width="160" height="40" as="geometry" />
        </mxCell>
        <mxCell id="eVe0wjIkxOfyltBJTPAA-93" value="&lt;font style=&quot;font-size: 24px;&quot;&gt;end&lt;/font&gt;" style="strokeWidth=2;html=1;shape=mxgraph.flowchart.start_1;whiteSpace=wrap;" vertex="1" parent="1">
          <mxGeometry x="335" y="650" width="100" height="60" as="geometry" />
        </mxCell>
        <mxCell id="eVe0wjIkxOfyltBJTPAA-94" style="edgeStyle=orthogonalEdgeStyle;rounded=0;orthogonalLoop=1;jettySize=auto;html=1;entryX=0.5;entryY=0;entryDx=0;entryDy=0;entryPerimeter=0;" edge="1" parent="1" source="eVe0wjIkxOfyltBJTPAA-77" target="eVe0wjIkxOfyltBJTPAA-93">
          <mxGeometry relative="1" as="geometry" />
        </mxCell>
        <mxCell id="eVe0wjIkxOfyltBJTPAA-95" style="edgeStyle=orthogonalEdgeStyle;rounded=0;orthogonalLoop=1;jettySize=auto;html=1;entryX=0.5;entryY=0;entryDx=0;entryDy=0;" edge="1" parent="1" source="eVe0wjIkxOfyltBJTPAA-96" target="eVe0wjIkxOfyltBJTPAA-99">
          <mxGeometry relative="1" as="geometry" />
        </mxCell>
        <mxCell id="eVe0wjIkxOfyltBJTPAA-96" value="for ( i &amp;lt; n - 1, i++)" style="rhombus;whiteSpace=wrap;html=1;" vertex="1" parent="1">
          <mxGeometry x="316.25" y="975" width="137.5" height="50" as="geometry" />
        </mxCell>
        <mxCell id="eVe0wjIkxOfyltBJTPAA-97" style="edgeStyle=orthogonalEdgeStyle;rounded=0;orthogonalLoop=1;jettySize=auto;html=1;entryX=0.5;entryY=0;entryDx=0;entryDy=0;" edge="1" parent="1" source="eVe0wjIkxOfyltBJTPAA-99" target="eVe0wjIkxOfyltBJTPAA-102">
          <mxGeometry relative="1" as="geometry" />
        </mxCell>
        <mxCell id="eVe0wjIkxOfyltBJTPAA-98" style="edgeStyle=orthogonalEdgeStyle;rounded=0;orthogonalLoop=1;jettySize=auto;html=1;entryX=1;entryY=1;entryDx=0;entryDy=0;" edge="1" parent="1" source="eVe0wjIkxOfyltBJTPAA-99" target="eVe0wjIkxOfyltBJTPAA-96">
          <mxGeometry relative="1" as="geometry" />
        </mxCell>
        <mxCell id="eVe0wjIkxOfyltBJTPAA-99" value="for ( j &amp;lt; n - i - 1, j++)" style="rhombus;whiteSpace=wrap;html=1;" vertex="1" parent="1">
          <mxGeometry x="473.75" y="1040" width="137.5" height="50" as="geometry" />
        </mxCell>
        <mxCell id="eVe0wjIkxOfyltBJTPAA-100" style="edgeStyle=orthogonalEdgeStyle;rounded=0;orthogonalLoop=1;jettySize=auto;html=1;entryX=0.5;entryY=0;entryDx=0;entryDy=0;" edge="1" parent="1" source="eVe0wjIkxOfyltBJTPAA-102" target="eVe0wjIkxOfyltBJTPAA-104">
          <mxGeometry relative="1" as="geometry" />
        </mxCell>
        <mxCell id="eVe0wjIkxOfyltBJTPAA-101" style="edgeStyle=orthogonalEdgeStyle;rounded=0;orthogonalLoop=1;jettySize=auto;html=1;entryX=1;entryY=1;entryDx=0;entryDy=0;" edge="1" parent="1" source="eVe0wjIkxOfyltBJTPAA-102" target="eVe0wjIkxOfyltBJTPAA-99">
          <mxGeometry relative="1" as="geometry" />
        </mxCell>
        <mxCell id="eVe0wjIkxOfyltBJTPAA-102" value="if (arr[j].height &amp;lt; arr[j + 1].height)" style="rhombus;whiteSpace=wrap;html=1;" vertex="1" parent="1">
          <mxGeometry x="613.75" y="1110" width="200" height="100" as="geometry" />
        </mxCell>
        <mxCell id="eVe0wjIkxOfyltBJTPAA-103" style="edgeStyle=orthogonalEdgeStyle;rounded=0;orthogonalLoop=1;jettySize=auto;html=1;entryX=0.5;entryY=0;entryDx=0;entryDy=0;" edge="1" parent="1" source="eVe0wjIkxOfyltBJTPAA-104" target="eVe0wjIkxOfyltBJTPAA-106">
          <mxGeometry relative="1" as="geometry" />
        </mxCell>
        <mxCell id="eVe0wjIkxOfyltBJTPAA-104" value="Student temp = arr[j]" style="rounded=1;whiteSpace=wrap;html=1;absoluteArcSize=1;arcSize=14;strokeWidth=2;" vertex="1" parent="1">
          <mxGeometry x="823.75" y="1210" width="160" height="40" as="geometry" />
        </mxCell>
        <mxCell id="eVe0wjIkxOfyltBJTPAA-105" style="edgeStyle=orthogonalEdgeStyle;rounded=0;orthogonalLoop=1;jettySize=auto;html=1;entryX=0.5;entryY=0;entryDx=0;entryDy=0;" edge="1" parent="1" source="eVe0wjIkxOfyltBJTPAA-106" target="eVe0wjIkxOfyltBJTPAA-108">
          <mxGeometry relative="1" as="geometry" />
        </mxCell>
        <mxCell id="eVe0wjIkxOfyltBJTPAA-106" value="arr[j] = arr[j + 1]" style="rounded=1;whiteSpace=wrap;html=1;absoluteArcSize=1;arcSize=14;strokeWidth=2;" vertex="1" parent="1">
          <mxGeometry x="823.75" y="1290" width="160" height="40" as="geometry" />
        </mxCell>
        <mxCell id="eVe0wjIkxOfyltBJTPAA-107" style="edgeStyle=orthogonalEdgeStyle;rounded=0;orthogonalLoop=1;jettySize=auto;html=1;entryX=1;entryY=1;entryDx=0;entryDy=0;" edge="1" parent="1" source="eVe0wjIkxOfyltBJTPAA-108" target="eVe0wjIkxOfyltBJTPAA-99">
          <mxGeometry relative="1" as="geometry" />
        </mxCell>
        <mxCell id="eVe0wjIkxOfyltBJTPAA-108" value="arr[j + 1] = temp" style="rounded=1;whiteSpace=wrap;html=1;absoluteArcSize=1;arcSize=14;strokeWidth=2;" vertex="1" parent="1">
          <mxGeometry x="823.75" y="1380" width="160" height="40" as="geometry" />
        </mxCell>
        <mxCell id="eVe0wjIkxOfyltBJTPAA-109" value="&lt;font style=&quot;font-size: 24px;&quot;&gt;end&lt;/font&gt;" style="strokeWidth=2;html=1;shape=mxgraph.flowchart.start_1;whiteSpace=wrap;" vertex="1" parent="1">
          <mxGeometry x="335" y="1460" width="100" height="60" as="geometry" />
        </mxCell>
        <mxCell id="eVe0wjIkxOfyltBJTPAA-110" style="edgeStyle=orthogonalEdgeStyle;rounded=0;orthogonalLoop=1;jettySize=auto;html=1;entryX=0.5;entryY=0;entryDx=0;entryDy=0;entryPerimeter=0;" edge="1" parent="1" source="eVe0wjIkxOfyltBJTPAA-96" target="eVe0wjIkxOfyltBJTPAA-109">
          <mxGeometry relative="1" as="geometry" />
        </mxCell>
      </root>
    </mxGraphModel>
  </diagram>
</mxfile>
